P2
24 7
18
9  9  9  9  9  9  9  9  9  9  9  9  9  9  9  9  9  9  9  9  9  9  9  9
9  3  3  3  3  9  9  7  7  7  7  9  9 11 11 11 11  9  9 15  9 18  9  9
9  9  9  9  3  9  9  9  9  9  7  9  9 11  0  0 11  9  9 15  9 18  9  9
9  3  3  3  3  9  9  7  7  7  7  9  9 11  0  0 11  9  9 15  9 18  9  9
9  3  9  9  9  9  9  7  9  9  9  9  9 11  0  0 11  9  9  9  9  9  9  9
9  3  3  3  3  9  9  7  7  7  7  9  9 11 11 11 11  9  9 15  9 18  9  9
9  9  9  9  9  9  9  9  9  9  9  9  9  9  9  9  9  9  9  9  9  9  9  9
